<mxfile host="app.diagrams.net" modified="2023-09-19T20:58:30.276Z" agent="Mozilla/5.0 (Windows NT 10.0; Win64; x64) AppleWebKit/537.36 (KHTML, like Gecko) Chrome/116.0.0.0 Safari/537.36" etag="ib2zGN8HzohnwVx4NSWk" version="21.7.4" type="github">
  <diagram name="Page-1" id="lCDHvuFwO_Oo8ZvdKnjj">
    <mxGraphModel dx="2284" dy="758" grid="1" gridSize="10" guides="0" tooltips="1" connect="1" arrows="1" fold="1" page="1" pageScale="1" pageWidth="850" pageHeight="1100" math="0" shadow="0">
      <root>
        <mxCell id="0" />
        <mxCell id="1" parent="0" />
        <mxCell id="qOTQIHq2Qko7lhdbGlyr-1" value="CountyCriminalCheckController&lt;br&gt;destroy()" style="rounded=0;whiteSpace=wrap;html=1;strokeColor=#999999;fillColor=#FFFFFF;labelBackgroundColor=none;" parent="1" vertex="1">
          <mxGeometry x="-70" y="41" width="191" height="60" as="geometry" />
        </mxCell>
        <mxCell id="qOTQIHq2Qko7lhdbGlyr-2" value="" style="endArrow=classic;html=1;rounded=0;strokeColor=#999999;fillColor=#FFFFFF;labelBackgroundColor=none;" parent="1" edge="1">
          <mxGeometry width="50" height="50" relative="1" as="geometry">
            <mxPoint x="120" y="71" as="sourcePoint" />
            <mxPoint x="150" y="71" as="targetPoint" />
          </mxGeometry>
        </mxCell>
        <mxCell id="qOTQIHq2Qko7lhdbGlyr-3" value="CountyCriminalCheck&lt;br&gt;deleting event" style="rounded=0;whiteSpace=wrap;html=1;strokeColor=#999999;fillColor=#FFFFFF;labelBackgroundColor=none;" parent="1" vertex="1">
          <mxGeometry x="150" y="41" width="130" height="60" as="geometry" />
        </mxCell>
        <mxCell id="qOTQIHq2Qko7lhdbGlyr-4" value="" style="endArrow=classic;html=1;rounded=0;strokeColor=#999999;fillColor=#FFFFFF;labelBackgroundColor=none;" parent="1" edge="1">
          <mxGeometry width="50" height="50" relative="1" as="geometry">
            <mxPoint x="280" y="71" as="sourcePoint" />
            <mxPoint x="310" y="71" as="targetPoint" />
          </mxGeometry>
        </mxCell>
        <mxCell id="qOTQIHq2Qko7lhdbGlyr-5" value="Delete CountyCriminalRecords" style="rounded=0;whiteSpace=wrap;html=1;strokeColor=#999999;fillColor=#FFFFFF;labelBackgroundColor=none;" parent="1" vertex="1">
          <mxGeometry x="310" y="41" width="140" height="60" as="geometry" />
        </mxCell>
        <mxCell id="qOTQIHq2Qko7lhdbGlyr-6" value="" style="endArrow=classic;html=1;rounded=0;strokeColor=#999999;fillColor=#FFFFFF;labelBackgroundColor=none;" parent="1" edge="1">
          <mxGeometry width="50" height="50" relative="1" as="geometry">
            <mxPoint x="450" y="71" as="sourcePoint" />
            <mxPoint x="480" y="71" as="targetPoint" />
          </mxGeometry>
        </mxCell>
        <mxCell id="qOTQIHq2Qko7lhdbGlyr-8" value="" style="endArrow=classic;html=1;rounded=0;" parent="1" edge="1">
          <mxGeometry width="50" height="50" relative="1" as="geometry">
            <mxPoint x="1960" y="350" as="sourcePoint" />
            <mxPoint x="1990" y="350" as="targetPoint" />
          </mxGeometry>
        </mxCell>
        <mxCell id="qOTQIHq2Qko7lhdbGlyr-9" value="Admin removes county (CountyCheck.vue)" style="rounded=0;whiteSpace=wrap;html=1;strokeColor=#999999;fillColor=#FFFFFF;labelBackgroundColor=none;" parent="1" vertex="1">
          <mxGeometry x="-217" y="41" width="120" height="60" as="geometry" />
        </mxCell>
        <mxCell id="qOTQIHq2Qko7lhdbGlyr-10" value="" style="endArrow=classic;html=1;rounded=0;strokeColor=#999999;fillColor=#FFFFFF;labelBackgroundColor=none;" parent="1" edge="1">
          <mxGeometry width="50" height="50" relative="1" as="geometry">
            <mxPoint x="-97" y="71" as="sourcePoint" />
            <mxPoint x="-67" y="71" as="targetPoint" />
          </mxGeometry>
        </mxCell>
        <mxCell id="qOTQIHq2Qko7lhdbGlyr-11" value="Delete County Report Status" style="rounded=0;whiteSpace=wrap;html=1;strokeColor=#999999;fillColor=#FFFFFF;labelBackgroundColor=none;" parent="1" vertex="1">
          <mxGeometry x="650" y="41" width="100" height="60" as="geometry" />
        </mxCell>
        <mxCell id="qOTQIHq2Qko7lhdbGlyr-12" value="" style="endArrow=classic;html=1;rounded=0;strokeColor=#999999;fillColor=#FFFFFF;labelBackgroundColor=none;" parent="1" edge="1">
          <mxGeometry width="50" height="50" relative="1" as="geometry">
            <mxPoint x="620" y="71" as="sourcePoint" />
            <mxPoint x="650" y="71" as="targetPoint" />
          </mxGeometry>
        </mxCell>
        <mxCell id="qOTQIHq2Qko7lhdbGlyr-14" value="CountyCriminalCheck&lt;br&gt;deleted event" style="rounded=0;whiteSpace=wrap;html=1;strokeColor=#999999;fillColor=#FFFFFF;labelBackgroundColor=none;" parent="1" vertex="1">
          <mxGeometry x="480" y="40" width="138" height="60" as="geometry" />
        </mxCell>
      </root>
    </mxGraphModel>
  </diagram>
</mxfile>
